{"accessors" : [{"bufferView" : 0, "byteOffset" : 0, "componentType" : 5123, "count" : 72, "type" : "SCALAR", "max" : [59], "min" : [0]}, {"bufferView" : 1, "byteOffset" : 0, "componentType" : 5126, "count" : 60, "type" : "VEC3", "max" : [1.0099999904632568, 1, 0.10000000149011612], "min" : [-1.0099999904632568, -1, 0], "name" : "POSITION"}, {"bufferView" : 1, "byteOffset" : 12, "componentType" : 5126, "count" : 60, "type" : "VEC3", "max" : [0.9284809231758118, 1.0000044107437134, 1.0000044107437134], "min" : [-0.9284809231758118, -0.46829506754875183, -1.0000044107437134], "name" : "NORMAL"}], "asset" : {"generator" : "Aspose.3D 24.4.1", "version" : "2.0"}, "buffers" : [{"uri" : "data:application/octet-stream;base64,", "byteLength" : 1592}], "bufferViews" : [{"buffer" : 0, "byteOffset" : 0, "byteLength" : 144, "target" : 34963}, {"buffer" : 0, "byteOffset" : 148, "byteLength" : 1440, "byteStride" : 24, "target" : 34962}], "meshes" : [{"primitives" : [{"attributes" : {"POSITION" : 1, "NORMAL" : 2}, "indices" : 0, "mode" : 4}], "name" : ""}], "nodes" : [{"mesh" : 0, "name" : ""}], "scene" : 0, "scenes" : [{"nodes" : [0]}]}